<svg xmlns="http://www.w3.org/2000/svg" xmlns:xlink="http://www.w3.org/1999/xlink" viewBox="0 0 842 666">

<g class ="g_to_interact_with" id="Layer_1" data-name="Layer 1" style="isolation:isolate">
<path d="M574,32c44-.31,84.4,19.35,115,35,108.84,55.69,143,112.79,143,270,0,42.55,7,134.48-10,160l-36,5-26-2c-5.9,1.08-17.23,3.7-26,2-14.67-3.33-24.33-3.67-39-7-14.67,1.33-23,4.32-49,1-58-12.34-116.59-27.62-168-46l-34-4c-30.81-7.33-70.68-13.93-100-22l-18,2c-26.69-3.41-53.46-8.54-82-14-17.5-3.35-50.58,1.29-64,2-1.67-1.67-4.33-1.33-6-3,2.67-18,7.33-45,10-63q1-19,2-38c8.48-42,15.52-84,31-120C260.06,89.81,369.12,35.66,512,36V33c-1.39-3.64-2.83-8.89-1-13,9.36-22.1,48-11.48,62,0Q573.5,26,574,32Z"/></g>


<g class ="g_to_interact_with" id="visor" style="isolation:isolate">
<path d="M186,410c44.35-.65,83.11,2,118,9,13.3,2.68,32,2.57,44,6,29.27,8.39,57.19,9.62,88,17,11.33,1.33,30.67,6.67,42,8a1123.9,1123.9,0,0,0,120,36l48,10c20.26,4.31,38.77-4.76,58-1,.33,2.33.67,4.67,1,7-18.36,14.51-29.75,36.69-48,51-55.66,43.65-99.14,88.61-177,103-27.82,5.14-81.83-4.77-101-11-36.69-11.92-65.9-23.54-101-38-71.63-29.51-181.32-69.33-255-13-11.71.63-13.77-1.11-17-9,7.25-17.69,25.52-28.19,39-40,31.86-27.9,60-59.95,92-88l39-44Z"/></g>

<g id="Layer_3_Image" data-name="Layer 3 Image">
<image  id="Layer_3_Image-2" data-name="Layer 3 Image" width="842" height="666" xlink:href="cap21.png"/></g></svg>